# xmcd
# 
# Track frame offsets:
#     150
#     20425
#     34822
#     51887
#     68732
#     90553
#     110216
#     125179
#     141474
#     161260
# 
# Disc length: 2363
# 
# Revision: 5
# Processed by: cddbd v1.5.2PL0 Copyright (c) Steve Scherf et al.
# Submitted via: fre:ac v1.0.31
# 
DISCID=8e09390a
DTITLE=王菀之 - 王菀之晴歌集 K2HD
DYEAR=2013
DGENRE=Pop
TTITLE0=幻影
TTITLE1=哥歌
TTITLE2=妳的名字我的姓氏
TTITLE3=如果這是情
TTITLE4=迷失表參道
TTITLE5=但願人長久
TTITLE6=CHOTTO等等
TTITLE7=FIRDT LOVE
TTITLE8=細水長流
TTITLE9=我真的受傷了 (Original Cut)
EXTD=
EXTT0=
EXTT1=
EXTT2=
EXTT3=
EXTT4=
EXTT5=
EXTT6=
EXTT7=
EXTT8=
EXTT9=
PLAYORDER=
